<svg xmlns="http://www.w3.org/2000/svg" viewBox="0 0 42 42" width="42" height="42"><path fill="#fff" d="M26.5 9h-11a6.5 6.5 0 0 0 0 13 6.45 6.45 0 0 0 3.35-.95 4.56 4.56 0 0 1 4.25 0A6.49 6.49 0 1 0 26.5 9zM16 17c-1.1 0-2-.67-2-1.5s.9-1.5 2-1.5 2 .67 2 1.5-.9 1.5-2 1.5zm10 0c-1.1 0-2-.67-2-1.5s.9-1.5 2-1.5 2 .67 2 1.5-.9 1.5-2 1.5zM15.41 26H18a1 1 0 0 0 0-2h-5a1 1 0 0 0-.38.08 1 1 0 0 0-.54.54A1 1 0 0 0 12 25v5a1 1 0 0 0 2 0v-2.59l5.29 5.3a1 1 0 0 0 1.42 0 1 1 0 0 0 0-1.42zM30 27a1 1 0 0 0-2 0v2.59l-5.29-5.3a1 1 0 0 0-1.42 1.42l5.3 5.29H24a1 1 0 0 0 0 2h5a1 1 0 0 0 .38-.08 1 1 0 0 0 .54-.54A1 1 0 0 0 30 32z"/></svg>