<svg xmlns="http://www.w3.org/2000/svg" viewBox="0 0 42 42"><defs><style>.cls-1{fill:#fff;}</style></defs><title>Artboard 3 copy 2</title><g id="Layer_2" data-name="Layer 2"><path class="cls-1" d="M26.5,9h-11a6.5,6.5,0,0,0,0,13,6.45,6.45,0,0,0,3.35-.95,4.56,4.56,0,0,1,4.25,0A6.49,6.49,0,1,0,26.5,9ZM16,17c-1.1,0-2-.67-2-1.5s.9-1.5,2-1.5,2,.67,2,1.5S17.1,17,16,17Zm10,0c-1.1,0-2-.67-2-1.5s.9-1.5,2-1.5,2,.67,2,1.5S27.1,17,26,17Z"/><path class="cls-1" d="M15.41,26H18a1,1,0,0,0,0-2H13a1,1,0,0,0-.38.08,1,1,0,0,0-.54.54A1,1,0,0,0,12,25v5a1,1,0,0,0,2,0V27.41l5.29,5.3a1,1,0,0,0,1.42,0,1,1,0,0,0,0-1.42Z"/><path class="cls-1" d="M30,27a1,1,0,0,0-2,0v2.59l-5.29-5.3a1,1,0,0,0-1.42,1.42L26.59,31H24a1,1,0,0,0,0,2h5a1,1,0,0,0,.38-.08,1,1,0,0,0,.54-.54A1,1,0,0,0,30,32Z"/></g></svg>