<svg width="60" height="60" xmlns="http://www.w3.org/2000/svg" viewBox="0 0 60 60">
  <path fill="#565a5c" d="M13.6 9.8l-3.89 2.91a1.051 1.051 0 01-.51.27 1.01 1.01 0 01-.4 0 1.051 1.051 0 01-.51-.27L4.4 9.8a1 1 0 011.2-1.6L8 10V1a1 1 0 012 0v9l2.4-1.8a1 1 0 011.2 1.6z"/>
  <circle fill="#cdf2b1" cx="9" cy="20" r="3"/>
  <path fill="#565a5c" d="M12.39 23.67a5 5 0 10-6.78 0A9 9 0 000 32v9a1 1 0 001 1h1.11l1.9 17.11A.989.989 0 005 60h8a.989.989 0 00.99-.89L15.89 42H17a1 1 0 001-1v-9a9 9 0 00-5.61-8.33zM9 17a3 3 0 11-3 3 3.009 3.009 0 013-3zm3.1 41H5.9L4.12 42h9.76zM16 40H2v-8a7 7 0 0114 0zM34.6 9.8l-3.89 2.91a1.051 1.051 0 01-.51.27 1.01 1.01 0 01-.4 0 1.051 1.051 0 01-.51-.27L25.4 9.8a1 1 0 011.2-1.6L29 10V1a1 1 0 012 0v9l2.4-1.8a1 1 0 111.2 1.6z"/>
  <path fill="#9ac965" d="M16 32v8H2v-8a7 7 0 0114 0z"/>
  <path fill="#cdf2b1" d="M13.88 42L12.1 58H5.9L4.12 42h9.76z"/>
  <circle fill="#cdf2b1" cx="30" cy="20" r="3"/>
  <path fill="#9ac965" d="M37 32v8H23v-8a7 7 0 0114 0z"/>
  <path fill="#cdf2b1" d="M34.88 42L33.1 58h-6.2l-1.78-16h9.76z"/>
  <path fill="#565a5c" d="M33.39 23.67a5 5 0 10-6.78 0A9 9 0 0021 32v9a1 1 0 001 1h1.11l1.9 17.11A.989.989 0 0026 60h8a.989.989 0 00.99-.89L36.89 42H38a1 1 0 001-1v-9a9 9 0 00-5.61-8.33zM27 20a3 3 0 113 3 3.009 3.009 0 01-3-3zm6.1 38h-6.2l-1.78-16h9.76zM37 40H23v-8a7 7 0 0114 0z"/>
  <circle fill="#f6e1fa" cx="51" cy="20" r="3"/>
  <path fill="#565a5c" d="M54.39 23.67a5 5 0 10-6.78 0A9 9 0 0042 32v9a1 1 0 001 1h1.11l1.9 17.11A.989.989 0 0047 60h8a.989.989 0 00.99-.89L57.89 42H59a1 1 0 001-1v-9a9 9 0 00-5.61-8.33zM51 17a3 3 0 11-3 3 3.009 3.009 0 013-3zm3.1 41h-6.2l-1.78-16h9.76zM58 40H44v-8a7 7 0 0114 0z"/>
  <path fill="#d66dac" d="M58 32v8H44v-8a7 7 0 0114 0z"/>
  <path fill="#f6e1fa" d="M55.88 42L54.1 58h-6.2l-1.78-16h9.76z"/>
</svg>
