<svg width="60" height="60" xmlns="http://www.w3.org/2000/svg" viewBox="0 0 60 60">
  <path d="M55.8 58.7c0-4.4-3.6-7.9-7.9-7.9-4.4 0-7.9 3.6-7.9 7.9h15.8z" fill="#fcec58"/>
  <path style="stroke-linecap:round;stroke-linejoin:round;fill:none;stroke:#575b5c;stroke-width:1.9823;stroke-miterlimit:10;" d="M55.8 58.7c0-4.4-3.6-7.9-7.9-7.9-4.4 0-7.9 3.6-7.9 7.9h15.8z"/>
  <circle cx="47.9" cy="46.8" r="4" fill="#fcf6b3"/>
  <circle style="fill:none;stroke:#575b5c;stroke-width:1.9823;stroke-miterlimit:10" cx="47.9" cy="46.8" r="4"/>
  <path d="M55.8 17.1c0-4.4-3.6-7.9-7.9-7.9-4.4 0-7.9 3.6-7.9 7.9h15.8z" fill="#eb7039"/>
  <path style="stroke-linecap:round;stroke-linejoin:round;fill:none;stroke:#575b5c;stroke-width:1.9823;stroke-miterlimit:10;" d="M55.8 17.1c0-4.4-3.6-7.9-7.9-7.9-4.4 0-7.9 3.6-7.9 7.9h15.8z"/>
  <circle cx="47.9" cy="5.2" r="4" fill="#f7e1ce"/>
  <circle style="fill:none;stroke:#575b5c;stroke-width:1.9823;stroke-miterlimit:10" cx="47.9" cy="5.2" r="4"/>
  <path d="M55.8 37.9c0-4.4-3.6-7.9-7.9-7.9-4.4 0-7.9 3.6-7.9 7.9h15.8z" fill="#99c765"/>
  <path style="stroke-linecap:round;stroke-linejoin:round;fill:none;stroke:#575b5c;stroke-width:1.9823;stroke-miterlimit:10;" d="M55.8 37.9c0-4.4-3.6-7.9-7.9-7.9-4.4 0-7.9 3.6-7.9 7.9h15.8z"/>
  <circle cx="47.9" cy="26" r="4" fill="#cde3ae"/>
  <circle style="fill:none;stroke:#575b5c;stroke-width:1.9823;stroke-miterlimit:10" cx="47.9" cy="26" r="4"/>
  <g stroke="#575b5c" stroke-width="1.9823" stroke-linecap="round" stroke-linejoin="round" stroke-miterlimit="10">
    <path d="M27 41.9C27 35.4 21.7 30 15.1 30h0C8.6 30 3.2 35.4 3.2 41.9H27z" fill="#bab6da"/>
    <circle cx="15.1" cy="24.1" r="5.9" fill="#e9e5f2"/>
  </g>
  <path style="stroke-linecap:round;stroke-linejoin:round;fill:none;stroke:#575b5c;stroke-width:1.9823;stroke-miterlimit:10;" d="M35 9.2v41.6M38.9 30H28M38.9 50.8H35M38.9 9.2H35"/>
</svg>
