<svg xmlns="http://www.w3.org/2000/svg" viewBox="0 0 42 42"><defs><style>.cls-1{fill:#fff;}</style></defs><title>Artboard 3</title><g id="Layer_2" data-name="Layer 2"><path class="cls-1" d="M24.71,31.29,12.41,19H19a1,1,0,0,0,0-2H10a1,1,0,0,0-.38.08,1,1,0,0,0-.54.54A1,1,0,0,0,9,18v9a1,1,0,0,0,2,0V20.41l12.29,12.3a1,1,0,0,0,1.42,0A1,1,0,0,0,24.71,31.29Z"/><path class="cls-1" d="M33,15a1,1,0,0,0-2,0v6.59L18.71,9.29a1,1,0,0,0-1.42,1.42L29.59,23H23a1,1,0,0,0,0,2h9a1,1,0,0,0,.38-.08,1,1,0,0,0,.54-.54A1,1,0,0,0,33,24Z"/></g></svg>