<svg width="60" height="60" xmlns="http://www.w3.org/2000/svg" viewBox="0 0 60 60">
<g>
  <g>
	<g>
	  <g>
		<path d="M56,28.4c-3.7,0-23.5,0-23.7,0c-1.7,0-1.8-0.8-1.8-1.9c0-0.1,0-0.2,0-0.5c0-0.1,0-0.1,0.1-0.1
			c0,0,0.1-0.1,0.1-0.1h0l27.6,0c0.1,0,0.1,0,0.1,0.1c0,0,0.1,0.1,0.1,0.1c0,0.2,0,0.4,0,0.5c0,1.1-0.1,1.9-1.8,1.9
			C56.5,28.4,56.3,28.4,56,28.4z M30.8,26.2c0,0.1,0,0.2,0,0.3c0,1.1,0.1,1.5,1.4,1.5c0.3,0,23.9,0,24.3,0c1.3,0,1.4-0.4,1.4-1.5
			c0-0.1,0-0.1,0-0.3L30.8,26.2z" style="fill:#DB7A30;"></path>
	  </g>
	</g>
	<path d="M54.9,26.2c-0.1,0-0.2-0.1-0.2-0.2V13.1c0-0.5-0.5-0.5-0.5-0.5H34.7c-0.1,0-0.5,0-0.5,0.5v12.6
	c0,0.1-0.1,0.2-0.2,0.2c-0.1,0-0.2-0.1-0.2-0.2V13.1c0-0.7,0.6-0.9,0.9-0.9h19.4c0.3,0,0.9,0.2,0.9,0.9V26
	C55.1,26.1,55,26.2,54.9,26.2z" style="fill:#DB7A30;"></path>
	<path d="M35.7,25c-0.1,0-0.2-0.1-0.2-0.2V14.1c0-0.1,0.1-0.2,0.2-0.2h6.6c0.1,0,0.2,0.1,0.2,0.2
	c0,0.1-0.1,0.2-0.2,0.2h-6.4v10.5C35.9,24.9,35.8,25,35.7,25z" style="fill:#DB7A30;"></path>
	<path class="st1" d="M53.3,25c-0.1,0-0.2-0.1-0.2-0.2V14.2h-6.6c-0.1,0-0.2-0.1-0.2-0.2c0-0.1,0.1-0.2,0.2-0.2h6.8
	c0.1,0,0.2,0.1,0.2,0.2v10.7C53.5,24.9,53.4,25,53.3,25z" style="fill:#DB7A30;"></path>
  </g>
  <g>
	<g>
	  <path d="M42,25.2c-0.1,0-0.2-0.1-0.2-0.2v-1.5c0-0.1,0.1-0.2,0.2-0.2c0.1,0,0.2,0.1,0.2,0.2V25
		C42.2,25.1,42.1,25.2,42,25.2z" style="fill:#989898;"></path>
	  <path d="M40.5,25.2c-0.1,0-0.2-0.1-0.2-0.2v-2.9c0-1.1,1.1-1.4,1.6-1.4H43c0,0,0.2,0,0.2-0.2c0-0.1,0.1-0.2,0.2-0.2
		c0.1,0,0.2,0.1,0.2,0.2c0,0.4-0.4,0.5-0.6,0.6l-1.2,0c0,0-1.2,0-1.2,1V25C40.6,25.1,40.6,25.2,40.5,25.2z" style="fill:#989898;"></path>
	  <path d="M46.9,25.1c-0.1,0-0.2-0.1-0.2-0.2v-1.3c0-0.1,0.1-0.2,0.2-0.2c0.1,0,0.2,0.1,0.2,0.2v1.3
		C47.1,25,47,25.1,46.9,25.1z" style="fill:#989898;"></path>
	  <path d="M48.4,25.1c-0.1,0-0.2-0.1-0.2-0.2v-2.8c0-1-1.2-1-1.2-1h-1.2c0,0-0.2,0-0.4-0.1c-0.1-0.1-0.2-0.2-0.2-0.4
		c0-0.1,0.1-0.2,0.2-0.2c0,0,0,0,0,0c0.1,0,0.2,0.1,0.2,0.2c0,0,0,0.2,0.1,0.2H47c0.6,0,1.6,0.3,1.6,1.4v2.8
		C48.6,25.1,48.5,25.1,48.4,25.1z" style="fill:#989898;"></path>
	</g>
	<path d="M44.4,20.2c-0.4,0-0.8-0.1-1.1-0.3c-0.1-0.1-0.1-0.2-0.1-0.3s0.2-0.1,0.3-0.1c0.3,0.2,0.6,0.3,0.9,0.3
	c1,0,1.8-0.9,1.8-2.1c0-1.1-0.8-2.1-1.8-2.1c-1,0-1.8,0.9-1.8,2.1c0,0.5,0.1,0.9,0.4,1.3c0.1,0.1,0,0.2-0.1,0.3
	c-0.1,0.1-0.2,0-0.3-0.1c-0.3-0.4-0.4-0.9-0.4-1.5c0-1.4,1-2.5,2.2-2.5c1.2,0,2.2,1.1,2.2,2.5C46.6,19.1,45.6,20.2,44.4,20.2z" style="fill:#989898;"></path>
	<g>
	  <path d="M42.4,18.5C42.4,18.5,42.4,18.4,42.4,18.5c-0.1,0-0.1,0-0.1,0c-0.6-0.2-0.9-0.7-0.9-1.2
		c0-0.7,0.6-1.3,1.3-1.3h0.4c0.1,0,0.2,0.1,0.2,0.2c0,0.1-0.1,0.2-0.2,0.2h-0.4c-0.5,0-0.9,0.4-0.9,0.9c0,0.4,0.3,0.7,0.6,0.9
		c0,0,0.1,0,0.1,0l0,0c0.1,0,0.2,0.1,0.1,0.2C42.6,18.4,42.5,18.5,42.4,18.5z" style="fill:#989898;"></path>
	  <path d="M46.4,18.4c-0.1,0-0.2-0.1-0.2-0.2c0-0.1,0-0.2,0.2-0.2c0.4-0.1,0.7-0.4,0.7-0.9c0-0.5-0.4-0.9-0.9-0.9h-0.4
		c-0.1,0-0.2-0.1-0.2-0.2c0-0.1,0.1-0.2,0.2-0.2h0.4c0.7,0,1.3,0.6,1.3,1.3C47.5,17.8,47.1,18.3,46.4,18.4
		C46.5,18.4,46.4,18.4,46.4,18.4z" style="fill:#989898;"></path>
	  <path d="M43.9,19.3H42c-0.1,0-0.2-0.1-0.2-0.2v-1.1c0-0.1,0.1-0.2,0.2-0.2c0.1,0,0.2,0.1,0.2,0.2v0.9h1.7
		c0.1,0,0.2,0.1,0.2,0.2S44,19.3,43.9,19.3z" style="fill:#989898;"></path>
	</g>
	<path d="M46.6,16.3c-0.1,0-0.2-0.1-0.2-0.2c-0.2-0.9-1-1.6-2-1.6c-1,0-1.8,0.7-2,1.6c0,0.1-0.1,0.2-0.2,0.2
	c-0.1,0-0.2-0.1-0.2-0.2c0.2-1.1,1.2-1.9,2.4-1.9c1.1,0,2.1,0.8,2.4,1.9C46.8,16.2,46.7,16.3,46.6,16.3
	C46.6,16.3,46.6,16.3,46.6,16.3z" style="fill:#989898;"></path>
  </g>
  <g>
	<path d="M28.9,51H10.2c-0.3,0-0.6-0.2-0.6-0.6v-2.1c0-0.3,0.2-0.6,0.6-0.6c0.3,0,0.6,0.2,0.6,0.6v1.6h17.6v-1.6
	c0-0.3,0.2-0.6,0.6-0.6c0.3,0,0.6,0.2,0.6,0.6v2.1C29.4,50.8,29.2,51,28.9,51z" style="fill:#DB7A30;"></path>
	<path d="M28.9,48.9C28.8,48.9,28.8,48.9,28.9,48.9c-0.4-0.1-0.6-0.3-0.5-0.6L30,37.7c0,0,0-0.3-0.1-0.5
	c-0.1-0.2-0.4-0.2-0.7-0.2c-1.3,0-18.6,0-19.4,0c-0.3,0-0.5,0.1-0.6,0.2C9,37.4,9,37.8,9,37.8l1.7,10.5c0,0.3-0.2,0.6-0.5,0.6
	c-0.3,0-0.6-0.2-0.6-0.5L7.9,37.9c0-0.1-0.1-0.8,0.4-1.4c0.2-0.3,0.6-0.6,1.4-0.6c0.8,0,18.2,0,19.5,0c0.7,0,1.2,0.2,1.5,0.6
	c0.5,0.6,0.4,1.3,0.3,1.4l-1.7,10.5C29.4,48.7,29.1,48.9,28.9,48.9z" style="fill:#DB7A30;"></path>
  </g>
  <path d="M19.5,28.2c-4.7,0-8.5-4.3-8.5-9.7c0-5.3,3.8-9.7,8.5-9.7c4.7,0,8.5,4.3,8.5,9.7C28,23.8,24.2,28.2,19.5,28.2z
 M19.5,9.9c-4.1,0-7.4,3.8-7.4,8.6c0,4.7,3.3,8.6,7.4,8.6c4.1,0,7.4-3.9,7.4-8.6C26.9,13.7,23.6,9.9,19.5,9.9z" style="fill:#2D7196;"></path>
  <g>
	<g>
	  <path d="M19.8,34.2C19.8,34.2,19.8,34.2,19.8,34.2c-0.1,0-0.1,0-0.1,0l0,0c-0.5-0.1-1.8-0.9-2.3-1.4
		c-0.8-0.7-1.2-1.4-1.2-2.1v-1.5c0-0.3,0.2-0.6,0.6-0.6c0.3,0,0.6,0.2,0.6,0.6v1.5c0,0.9,1.6,2,2.5,2.4c0.8-0.4,2.5-1.4,2.5-2.4
		v-1.5c0-0.3,0.2-0.6,0.6-0.6c0.3,0,0.6,0.2,0.6,0.6v1.5c0,0.7-0.4,1.4-1.2,2.1C21.6,33.3,20.4,34.1,19.8,34.2L19.8,34.2
		C19.9,34.2,19.8,34.2,19.8,34.2z" style="fill:#2D7196;"></path>
	  <path d="M35.5,48.7c-0.3,0-0.5-0.2-0.5-0.5l-1.2-10.5c-0.9-5.8-5-6.9-10.6-7.9c-0.3-0.1-0.5-0.3-0.5-0.6
		c0.1-0.3,0.3-0.5,0.6-0.5c5.9,1,10.5,2.3,11.6,8.9L36,48C36,48.3,35.8,48.6,35.5,48.7C35.5,48.7,35.5,48.7,35.5,48.7z" style="fill:#2D7196;"></path>
	  <path d="M3.6,48.6C3.6,48.6,3.5,48.6,3.6,48.6c-0.4,0-0.6-0.3-0.5-0.6l1.3-10.4c1.4-7.2,6.1-8,12-9
		c0.3,0,0.6,0.2,0.6,0.5c0,0.3-0.2,0.6-0.5,0.6c-6.5,1-9.9,1.9-11.1,8L4.1,48.1C4.1,48.4,3.9,48.6,3.6,48.6z" style="fill:#2D7196;"></path>
	</g>
	<path d="M16.8,30.8c-0.3,0-0.6-0.2-0.6-0.6v-1.5c0-0.3,0.2-0.6,0.6-0.6c0.3,0,0.6,0.2,0.6,0.6v1.5
	C17.3,30.6,17.1,30.8,16.8,30.8z" style="fill:#2D7196;"></path>
	<path d="M22.8,30.8c-0.3,0-0.6-0.2-0.6-0.6v-1.5c0-0.3,0.2-0.6,0.6-0.6c0.3,0,0.6,0.2,0.6,0.6v1.5
	C23.4,30.6,23.1,30.8,22.8,30.8z" style="fill:#2D7196;"></path>
  </g>
  <g>
	<path d="M38.4,43.8l1.3,0l0,0c0.1,0,0.2-0.1,0.2-0.2c0-0.1-0.1-0.2-0.2-0.2l0,0l-1.3,0l0,0c-0.1,0-0.2,0.1-0.2,0.2
	C38.1,43.7,38.2,43.8,38.4,43.8L38.4,43.8z" style="fill:#989898;"></path>
  </g>
  <g>
	<path d="M43.8,43.8l1.3,0l0,0c0.1,0,0.2-0.1,0.2-0.2c0-0.1-0.1-0.2-0.2-0.2l0,0l-1.3,0l0,0c-0.1,0-0.2,0.1-0.2,0.2
	C43.6,43.7,43.7,43.8,43.8,43.8L43.8,43.8z" style="fill:#989898;"></path>
	<path d="M41.1,43.8l1.3,0l0,0c0.1,0,0.2-0.1,0.2-0.2c0-0.1-0.1-0.2-0.2-0.2l0,0l-1.3,0l0,0c-0.1,0-0.2,0.1-0.2,0.2
	C40.9,43.7,41,43.8,41.1,43.8L41.1,43.8z" style="fill:#989898;"></path>
  </g>
  <g>
	<g>
	  <path d="M45.5,36.8l0-1.3l0,0c0-0.1-0.1-0.2-0.2-0.2c-0.1,0-0.2,0.1-0.2,0.2l0,0l0,1.3l0,0c0,0.1,0.1,0.2,0.2,0.2
		C45.4,37.1,45.5,36.9,45.5,36.8L45.5,36.8z" style="fill:#989898;"></path>
	  <path d="M45.5,39.5l0-1.3l0,0c0-0.1-0.1-0.2-0.2-0.2c-0.1,0-0.2,0.1-0.2,0.2l0,0l0,1.3l0,0c0,0.1,0.1,0.2,0.2,0.2
		C45.4,39.7,45.5,39.6,45.5,39.5L45.5,39.5z" style="fill:#989898;"></path>
	  <path d="M45.5,42.2l0-1.3l0,0c0-0.1-0.1-0.2-0.2-0.2c-0.1,0-0.2,0.1-0.2,0.2l0,0l0,1.3l0,0c0,0.1,0.1,0.2,0.2,0.2
		C45.4,42.4,45.5,42.3,45.5,42.2L45.5,42.2z" style="fill:#989898;"></path>
	</g>
	<g>
	  <path d="M45.5,31.4l0-1.3l0,0c0-0.1-0.1-0.2-0.2-0.2c-0.1,0-0.2,0.1-0.2,0.2l0,0l0,1.3l0,0c0,0.1,0.1,0.2,0.2,0.2
		C45.4,31.6,45.5,31.5,45.5,31.4L45.5,31.4z" style="fill:#989898;"></path>
	  <path d="M45.5,34.1l0-1.3l0,0c0-0.1-0.1-0.2-0.2-0.2c-0.1,0-0.2,0.1-0.2,0.2l0,0l0,1.3l0,0c0,0.1,0.1,0.2,0.2,0.2
		C45.4,34.3,45.5,34.2,45.5,34.1L45.5,34.1z" style="fill:#989898;"></path>
	</g>
  </g>
</g>
</svg>