<svg width="60" height="60" xmlns="http://www.w3.org/2000/svg" viewBox="0 0 60 60"><g>
<g>
	<path d="M38.8,25.1l0.9-0.9l0,0c0.1-0.1,0.1-0.2,0-0.3c-0.1-0.1-0.2-0.1-0.3,0l0,0l-0.9,0.9l0,0
	c-0.1,0.1-0.1,0.2,0,0.3C38.6,25.2,38.7,25.2,38.8,25.1L38.8,25.1z" style="fill:#2D7196;"></path>
	<path d="M36.9,27l0.9-0.9l0,0c0.1-0.1,0.1-0.2,0-0.3c-0.1-0.1-0.2-0.1-0.3,0l0,0l-0.9,0.9l0,0c-0.1,0.1-0.1,0.2,0,0.3
	C36.7,27.1,36.8,27.1,36.9,27L36.9,27z" style="fill:#2D7196;"></path>
	<path d="M35,28.9l0.9-0.9l0,0c0.1-0.1,0.1-0.2,0-0.3c-0.1-0.1-0.2-0.1-0.3,0l0,0l-0.9,0.9l0,0c-0.1,0.1-0.1,0.2,0,0.3
	C34.7,29,34.9,29,35,28.9L35,28.9z" style="fill:#2D7196;"></path>
  </g>
  <g>
	<path d="M23.4,33.6c0-3.7,3-6.6,6.6-6.6c3.7,0,6.6,3,6.6,6.6s-3,6.6-6.6,6.6C26.3,40.2,23.4,37.3,23.4,33.6z M30,40.7
	c3.9,0,7.1-3.2,7.1-7.1c0-3.9-3.2-7.1-7.1-7.1c-3.9,0-7.1,3.2-7.1,7.1C22.9,37.5,26.1,40.7,30,40.7z" style="fill:#DB7A30;"></path>
	<path d="M27.1,31.6v2.2c0,1.6,1.3,2.9,2.9,2.9c1.6,0,2.9-1.3,2.9-2.9v-2.2l0,0c0-0.1-0.1-0.2-0.2-0.2
	c-0.1,0-0.2,0.1-0.2,0.2l0,0v2.2c0,1.3-1.1,2.4-2.4,2.4c-1.3,0-2.4-1.1-2.4-2.4v-2.2l0,0c0-0.1-0.1-0.2-0.2-0.2
	C27.2,31.4,27.1,31.5,27.1,31.6L27.1,31.6z" style="fill:#DB7A30;"></path>
	<path d="M35,38.5c0-0.9-0.7-2.3-2.8-2.3H30h-2.3c-2,0-2.8,1.3-2.8,2.3l0,0c0,0.1,0.1,0.2,0.2,0.2s0.2-0.1,0.2-0.2l0,0
	c0-0.6,0.5-1.8,2.3-1.8H30h2.3c1.8,0,2.3,1.2,2.3,1.8l0,0c0,0.1,0.1,0.2,0.2,0.2C34.9,38.8,35,38.7,35,38.5L35,38.5z" style="fill:#DB7A30;"></path>
	<path d="M29.4,33.6v0.9c0,0.1,0.1,0.2,0.2,0.2H30l0,0c0.1,0,0.2-0.1,0.2-0.2c0-0.1-0.1-0.2-0.2-0.2l0,0h-0.3
	c0.1,0,0.2,0.1,0.2,0.2v-0.9l0,0c0-0.1-0.1-0.2-0.2-0.2C29.5,33.4,29.4,33.5,29.4,33.6L29.4,33.6z" style="fill:#DB7A30;"></path>
	<circle cx="28.6" cy="33.1" r="0.2" style="fill:#DB7A30;"></circle>
	<circle cx="30.9" cy="33.1" r="0.2" style="fill:#DB7A30;"></circle>
	<circle cx="30.9" cy="37.8" r="0.2" style="fill:#DB7A30;"></circle>
	<path d="M32.6,31.4h-5.3c-0.3,0-0.5-0.7-0.5-1.8c0,0.1-0.1,0.2-0.2,0.2H31c0.7,0,0.7,0.6,0.7,0.7
	c0,0.1,0.1,0.2,0.2,0.2c0.2,0,0.5,0.1,0.5,0.4v0.5C32.4,31.5,32.5,31.4,32.6,31.4z M32.9,31.2c0-0.6-0.5-0.9-0.9-0.9
	c0.1,0,0.2,0.1,0.2,0.2c0-0.6-0.4-1.2-1.2-1.2h-4.4c-0.1,0-0.2,0.1-0.2,0.2c0,1,0.1,2.3,1,2.3h5.3c0.1,0,0.2-0.1,0.2-0.2V31.2z" style="fill:#DB7A30;"></path>
	<path d="M29.7,36.5v2.2l0,0c0,0.1,0.1,0.2,0.2,0.2c0.1,0,0.2-0.1,0.2-0.2l0,0v-2.2l0,0c0-0.1-0.1-0.2-0.2-0.2
	C29.8,36.3,29.7,36.4,29.7,36.5L29.7,36.5z" style="fill:#DB7A30;"></path>
  </g>
  <path d="M30.2,26.8V20l0,0c0-0.1-0.1-0.2-0.2-0.2s-0.2,0.1-0.2,0.2l0,0v6.7l0,0c0,0.1,0.1,0.2,0.2,0.2
S30.2,26.9,30.2,26.8L30.2,26.8z" style="fill:#2D7196;"></path>
  <path d="M25.3,28.6l-4.8-4.8l0,0c-0.1-0.1-0.2-0.1-0.3,0c-0.1,0.1-0.1,0.2,0,0.3l0,0l4.8,4.8l0,0
c0.1,0.1,0.2,0.1,0.3,0C25.4,28.8,25.4,28.7,25.3,28.6L25.3,28.6z" style="fill:#2D7196;"></path>
  <g>
	<path d="M33.2,16.5c0,1.8-1.5,3.3-3.3,3.3c-1.8,0-3.3-1.5-3.3-3.3c0-1.8,1.5-3.3,3.3-3.3
	C31.8,13.3,33.2,14.7,33.2,16.5z M30,12.8c-2.1,0-3.7,1.7-3.7,3.7c0,2.1,1.7,3.7,3.7,3.7c2.1,0,3.7-1.7,3.7-3.7
	C33.7,14.5,32,12.8,30,12.8z" style="fill:#2D7196;"></path>
	<path d="M30,16.7c0.8,0,1.4-0.6,1.4-1.4c0-0.8-0.6-1.4-1.4-1.4c-0.8,0-1.4,0.6-1.4,1.4C28.6,16,29.2,16.7,30,16.7z
	 M29,15.2c0-0.5,0.4-1,1-1c0.5,0,1,0.4,1,1c0,0.5-0.4,1-1,1C29.4,16.2,29,15.8,29,15.2z" style="fill:#2D7196;"></path>
	<path d="M32.3,17.7c0-0.8-0.5-1.5-1.4-1.5h-1h-1c-0.9,0-1.4,0.8-1.4,1.5l0,0c0,0.1,0.1,0.2,0.2,0.2
	c0.1,0,0.2-0.1,0.2-0.2l0,0c0-0.4,0.2-1.1,0.9-1.1h1h1c0.7,0,0.9,0.7,0.9,1.1l0,0c0,0.1,0.1,0.2,0.2,0.2
	C32.2,17.9,32.3,17.8,32.3,17.7L32.3,17.7z" style="fill:#2D7196;"></path>
	<path d="M28.8,15.5c0.6,0,1.4-0.1,2.2-1l0,0c0.1-0.1,0.1-0.2,0-0.3c-0.1-0.1-0.2-0.1-0.3,0l0,0
	C30,14.9,29.3,15,28.8,15l0,0c-0.1,0-0.2,0.1-0.2,0.2C28.6,15.4,28.7,15.5,28.8,15.5L28.8,15.5z" style="fill:#2D7196;"></path>
  </g>
  <g>
	<path d="M17.9,21.6c0.8,0,1.4-0.6,1.4-1.4c0-0.8-0.6-1.4-1.4-1.4c-0.8,0-1.4,0.6-1.4,1.4C16.5,21,17.2,21.6,17.9,21.6
	z M17,20.2c0-0.5,0.4-1,1-1c0.5,0,1,0.4,1,1c0,0.5-0.4,1-1,1C17.4,21.2,17,20.7,17,20.2z" style="fill:#2D7196;"></path>
	<path d="M20.3,22.7c0-0.8-0.5-1.5-1.4-1.5h-1h-1c-0.9,0-1.4,0.8-1.4,1.5l0,0c0,0.1,0.1,0.2,0.2,0.2
	c0.1,0,0.2-0.1,0.2-0.2l0,0c0-0.4,0.2-1.1,0.9-1.1h1h1c0.7,0,0.9,0.7,0.9,1.1l0,0c0,0.1,0.1,0.2,0.2,0.2
	C20.2,22.9,20.3,22.8,20.3,22.7L20.3,22.7z" style="fill:#2D7196;"></path>
	<path d="M16.7,20.4c0.6,0,1.4-0.1,2.2-1l0,0c0.1-0.1,0.1-0.2,0-0.3c-0.1-0.1-0.2-0.1-0.3,0l0,0
	c-0.6,0.7-1.2,0.8-1.8,0.8l0,0c-0.1,0-0.2,0.1-0.2,0.2C16.5,20.3,16.6,20.4,16.7,20.4L16.7,20.4z" style="fill:#2D7196;"></path>
	<path d="M21.2,21.5c0,1.8-1.5,3.3-3.3,3.3c-1.8,0-3.3-1.5-3.3-3.3c0-1.8,1.5-3.3,3.3-3.3
	C19.7,18.2,21.2,19.7,21.2,21.5z M17.9,17.8c-2.1,0-3.7,1.7-3.7,3.7c0,2.1,1.7,3.7,3.7,3.7c2.1,0,3.7-1.7,3.7-3.7
	C21.7,19.4,20,17.8,17.9,17.8z" style="fill:#2D7196;"></path>
  </g>
  <g>
	<path d="M42.1,21.7c0.8,0,1.4-0.6,1.4-1.4c0-0.8-0.6-1.4-1.4-1.4c-0.8,0-1.4,0.6-1.4,1.4C40.6,21,41.3,21.7,42.1,21.7
	z M41.1,20.2c0-0.5,0.4-1,1-1c0.5,0,1,0.4,1,1c0,0.5-0.4,1-1,1C41.5,21.2,41.1,20.8,41.1,20.2z" style="fill:#2D7196;"></path>
	<path d="M44.4,22.7c0-0.8-0.5-1.5-1.4-1.5h-1h-1c-0.9,0-1.4,0.8-1.4,1.5l0,0c0,0.1,0.1,0.2,0.2,0.2
	c0.1,0,0.2-0.1,0.2-0.2l0,0c0-0.4,0.2-1.1,0.9-1.1h1h1c0.7,0,0.9,0.7,0.9,1.1l0,0c0,0.1,0.1,0.2,0.2,0.2S44.4,22.8,44.4,22.7
	L44.4,22.7z" style="fill:#2D7196;"></path>
	<path d="M40.9,20.5c0.6,0,1.4-0.1,2.2-1l0,0c0.1-0.1,0.1-0.2,0-0.3c-0.1-0.1-0.2-0.1-0.3,0l0,0
	c-0.6,0.7-1.2,0.8-1.8,0.8l0,0c-0.1,0-0.2,0.1-0.2,0.2S40.7,20.5,40.9,20.5L40.9,20.5z" style="fill:#2D7196;"></path>
	<path d="M45.3,21.5c0,1.8-1.5,3.3-3.3,3.3c-1.8,0-3.3-1.5-3.3-3.3c0-1.8,1.5-3.3,3.3-3.3
	C43.9,18.3,45.3,19.7,45.3,21.5z M42.1,17.8c-2.1,0-3.7,1.7-3.7,3.7c0,2.1,1.7,3.7,3.7,3.7c2.1,0,3.7-1.7,3.7-3.7
	C45.8,19.5,44.1,17.8,42.1,17.8z" style="fill:#2D7196;"></path>
  </g>
  <g>
	<path d="M35.4,13.4h3l0,0c0.2,0,0.4-0.2,0.4-0.4c0-0.2-0.2-0.4-0.4-0.4l0,0h-3l0,0c-0.2,0-0.4,0.2-0.4,0.4
	C35,13.3,35.2,13.4,35.4,13.4L35.4,13.4z" style="fill:#989898;"></path>
	<g>
	  <path d="M1.9,42.4c0,2.7,2.2,5,5,5h46.2c2.7,0,5-2.2,5-5c0-0.2-0.2-0.4-0.4-0.4H2.3C2.1,42,1.9,42.2,1.9,42.4z
		 M57.3,42.4c0,2.3-1.9,4.2-4.2,4.2H6.9c-2.3,0-4.2-1.9-4.2-4.2c0,0.2-0.2,0.4-0.4,0.4h55.4C57.5,42.8,57.3,42.6,57.3,42.4z" style="fill:#989898;"></path>
	  <path d="M48.4,13.4h0.4c1.3,0,2.3,1,2.3,2.3v26.7c0-0.2,0.2-0.4,0.4-0.4H8.6C8.8,42,9,42.2,9,42.4V15.7
		c0-1.3,1-2.3,2.3-2.3h0.4l0,0c0.2,0,0.4-0.2,0.4-0.4c0-0.2-0.2-0.4-0.4-0.4l0,0h-0.4c-1.7,0-3.1,1.4-3.1,3.1v26.7
		c0,0.2,0.2,0.4,0.4,0.4h42.9c0.2,0,0.4-0.2,0.4-0.4V15.7c0-1.7-1.4-3.1-3.1-3.1h-0.4l0,0c-0.2,0-0.4,0.2-0.4,0.4
		C48,13.3,48.2,13.4,48.4,13.4L48.4,13.4z" style="fill:#989898;"></path>
	  <path d="M24.7,42.8h10.6c-0.2,0-0.4-0.2-0.4-0.4v2.3c0-0.2,0.2-0.4,0.4-0.4H24.7c0.2,0,0.4,0.2,0.4,0.4v-2.3
		C25.1,42.6,24.9,42.8,24.7,42.8z M24.7,45h10.6c0.2,0,0.4-0.2,0.4-0.4v-2.3c0-0.2-0.2-0.4-0.4-0.4H24.7c-0.2,0-0.4,0.2-0.4,0.4
		v2.3C24.3,44.9,24.5,45,24.7,45z" style="fill:#989898;"></path>
	  <path d="M21,13.4h3l0,0c0.2,0,0.4-0.2,0.4-0.4c0-0.2-0.2-0.4-0.4-0.4l0,0h-3l0,0c-0.2,0-0.4,0.2-0.4,0.4
		C20.6,13.2,20.8,13.4,21,13.4L21,13.4z" style="fill:#989898;"></path>
	  <g>
		<path d="M23.7,12.7H11.4c0.2,0,0.3,0.2,0.3,0.4h-0.7c0,0.2,0.1,0.4,0.3,0.4h12.2V12.7z" style="fill:#989898;"></path>
		<path d="M48.1,13c0-0.2,0.1-0.4,0.3-0.4H35.7v0.8h12.7c0.2,0,0.3-0.2,0.3-0.4H48.1z" style="fill:#989898;"></path>
	  </g>
	</g>
  </g>
  <g>
	<g>
	  <path d="M21.5,14.8h-7.9c-1.6,0-3,1.3-3,3v21.6h0.7V17.7c0-1.3,1-2.3,2.3-2.3h7.9V14.8z" style="fill:#989898;"></path>
	  <path d="M46.4,14.8h-8.1v0.7h8.1c1.3,0,2.3,1,2.3,2.3v21.6h0.7V17.7C49.4,16.1,48,14.8,46.4,14.8z" style="fill:#989898;"></path>
	</g>
	<g>
	  <path d="M37.6,15.4h2.6l0,0c0.2,0,0.3-0.1,0.3-0.3c0-0.2-0.1-0.3-0.3-0.3l0,0h-2.6l0,0c-0.2,0-0.3,0.1-0.3,0.3
		C37.3,15.3,37.4,15.4,37.6,15.4L37.6,15.4z" style="fill:#989898;"></path>
	  <path d="M49.4,40.2v-2.6l0,0c0-0.2-0.1-0.3-0.3-0.3c-0.2,0-0.3,0.1-0.3,0.3l0,0v2.6l0,0c0,0.2,0.1,0.3,0.3,0.3
		C49.2,40.6,49.4,40.4,49.4,40.2L49.4,40.2z" style="fill:#989898;"></path>
	</g>
	<g>
	  <path d="M19.1,15.4h2.6l0,0c0.2,0,0.3-0.1,0.3-0.3c0-0.2-0.1-0.3-0.3-0.3l0,0h-2.6l0,0c-0.2,0-0.3,0.1-0.3,0.3
		C18.8,15.3,18.9,15.4,19.1,15.4L19.1,15.4z" style="fill:#989898;"></path>
	  <path d="M11.3,40.2v-2.6l0,0c0-0.2-0.1-0.3-0.3-0.3c-0.2,0-0.3,0.1-0.3,0.3l0,0v2.6l0,0c0,0.2,0.1,0.3,0.3,0.3
		C11.2,40.6,11.3,40.4,11.3,40.2L11.3,40.2z" style="fill:#989898;"></path>
	</g>
  </g>
</g>
</svg>